<svg
   xmlns="http://www.w3.org/2000/svg"
   version="1.1"
   id="Layer_1"
   x="0px"
   y="0px"
   width="1000px"
   height="990.847px"
   viewBox="0 0 1000 990.847"
   enable-background="new 0 0 1000 990.847"
   xml:space="preserve">
  <g
     transform="matrix(2.5710315,0,0,2.5710315,-816.92471,0)">
    <path
       fill="#FFA103"
       fill-rule="evenodd"
       clip-rule="evenodd"
       d="m 512.218,55.316 c 32.091,0 61.638,10.731 85.178,28.757 L 632.129,40.979 C 599.089,15.31 557.46,0 512.218,0 466.973,0 425.342,15.308 392.304,40.98 l 34.733,43.094 c 23.538,-18.023 53.09,-28.758 85.181,-28.758 z" />
    <path
       fill="#374549"
       fill-rule="evenodd"
       clip-rule="evenodd"
       d="m 608.046,93.104 c 26.671,25.027 43.3,60.39 43.3,99.59 0,24.897 -6.711,48.25 -18.441,68.387 l -76.654,-74.01 -35.585,-80.23 v 122.955 l 75.223,72.662 c -23.286,17.334 -52.263,27.609 -83.67,27.609 -31.41,0 -60.384,-10.281 -83.672,-27.609 l 75.22,-72.662 V 106.841 l -35.585,80.23 -76.655,74.01 c -11.729,-20.136 -18.438,-43.487 -18.438,-68.387 0,-39.201 16.628,-74.563 43.299,-99.593 L 381.596,49.937 c -39.223,35.251 -63.854,86.157 -63.854,142.757 0,106.421 87.071,192.695 194.477,192.695 107.4,0 194.472,-86.274 194.472,-192.695 0,-56.6 -24.626,-107.503 -63.851,-142.757 z" />
  </g>
</svg>
